<svg width="20" height="20" viewBox="0 0 20 20" fill="none" xmlns="http://www.w3.org/2000/svg">
<path d="M16.1106 11.0862V9.19145C16.1113 7.91087 15.6236 6.6675 14.7262 5.66237C13.8288 4.65725 12.5742 3.94915 11.1653 3.65258C11.176 3.61584 11.1844 3.57859 11.1903 3.541V1.05262C11.1903 0.773445 11.0649 0.505708 10.8416 0.308304C10.6184 0.110901 10.3156 0 9.99984 0C9.6841 0 9.3813 0.110901 9.15804 0.308304C8.93479 0.505708 8.80936 0.773445 8.80936 1.05262V3.541C8.81528 3.57859 8.82363 3.61584 8.83436 3.65258C7.42545 3.94915 6.17085 4.65725 5.27346 5.66237C4.37606 6.6675 3.88833 7.91087 3.88912 9.19145V11.0862C3.88912 13.5977 1.6665 14.2251 1.6665 15.4808C1.6665 16.105 1.6665 16.7366 2.30698 16.7366H17.6927C18.3332 16.7366 18.3332 16.105 18.3332 15.4808C18.3332 14.2251 16.1106 13.5977 16.1106 11.0862Z" fill="#6B7280"/>
<path d="M6.21769 17.7892C6.5335 18.445 7.06042 19.0043 7.73289 19.3973C8.40536 19.7904 9.1937 20 9.99984 20C10.806 20 11.5943 19.7904 12.2668 19.3973C12.9393 19.0043 13.4662 18.445 13.782 17.7892H6.21769Z" fill="#6B7280"/>
</svg>
