<svg width="14" height="15" viewBox="0 0 14 15" fill="none" xmlns="http://www.w3.org/2000/svg">
<path d="M8.51807 11.4995C8.44048 11.7352 8.31011 11.9526 8.13135 12.1313C7.83129 12.4314 7.42385 12.6001 6.99951 12.6001C6.57536 12.6 6.1686 12.4313 5.86865 12.1313C5.68989 11.9526 5.55952 11.7352 5.48193 11.4995H8.51807ZM6.99951 2.3999C7.98081 2.3999 8.92281 2.79 9.6167 3.48389C10.3104 4.17774 10.6997 5.11897 10.6997 6.1001V8.81689L11.3413 9.4585C11.3693 9.48646 11.3883 9.52226 11.396 9.56104C11.4037 9.59977 11.3994 9.63978 11.3843 9.67627C11.3692 9.71278 11.3439 9.74414 11.311 9.76611C11.2782 9.78809 11.2393 9.80028 11.1997 9.80029H2.80029C2.78044 9.80029 2.76049 9.79723 2.7417 9.7915L2.68896 9.76611C2.6561 9.74414 2.63085 9.7128 2.61572 9.67627C2.6006 9.63977 2.59632 9.59979 2.604 9.56104C2.61172 9.52224 2.63073 9.48647 2.65869 9.4585L3.30029 8.81689V6.1001C3.30029 5.11895 3.68961 4.17774 4.3833 3.48389C5.07708 2.79011 6.01837 2.40002 6.99951 2.3999Z" fill="white" stroke="white"/>
</svg>
