<svg width="16" height="16" viewBox="0 0 16 16" fill="none" xmlns="http://www.w3.org/2000/svg">
<g clip-path="url(#clip0_849_4461)">
<path d="M13.7038 0.8H11.0328C10.8909 0.557567 10.6866 0.356034 10.4403 0.215618C10.194 0.0752026 9.9145 0.000843156 9.62971 0H6.37045C6.08567 0.000843156 5.80611 0.0752026 5.55984 0.215618C5.31357 0.356034 5.10923 0.557567 4.96734 0.8H2.29638C1.86417 0.8 1.44967 0.968571 1.14406 1.26863C0.838441 1.56869 0.666748 1.97565 0.666748 2.4V14.4C0.666748 14.8243 0.838441 15.2313 1.14406 15.5314C1.44967 15.8314 1.86417 16 2.29638 16H13.7038C14.136 16 14.5505 15.8314 14.8561 15.5314C15.1617 15.2313 15.3334 14.8243 15.3334 14.4V2.4C15.3334 1.97565 15.1617 1.56869 14.8561 1.26863C14.5505 0.968571 14.136 0.8 13.7038 0.8ZM6.37045 1.6H9.62971V3.2H6.37045V1.6ZM4.74082 12C4.57967 12 4.42213 11.9531 4.28814 11.8652C4.15414 11.7773 4.0497 11.6523 3.98803 11.5061C3.92636 11.36 3.91022 11.1991 3.94166 11.0439C3.9731 10.8887 4.05071 10.7462 4.16466 10.6343C4.27861 10.5224 4.4238 10.4462 4.58186 10.4154C4.73992 10.3845 4.90375 10.4003 5.05264 10.4609C5.20153 10.5214 5.32878 10.624 5.41832 10.7555C5.50785 10.8871 5.55564 11.0418 5.55564 11.2C5.55564 11.4122 5.46979 11.6157 5.31698 11.7657C5.16418 11.9157 4.95692 12 4.74082 12ZM4.74082 8.8C4.57967 8.8 4.42213 8.75308 4.28814 8.66518C4.15414 8.57727 4.0497 8.45233 3.98803 8.30615C3.92636 8.15997 3.91022 7.99911 3.94166 7.84393C3.9731 7.68874 4.05071 7.5462 4.16466 7.43431C4.27861 7.32243 4.4238 7.24624 4.58186 7.21537C4.73992 7.1845 4.90375 7.20035 5.05264 7.2609C5.20153 7.32145 5.32878 7.42398 5.41832 7.55554C5.50785 7.6871 5.55564 7.84177 5.55564 8C5.55564 8.21217 5.46979 8.41566 5.31698 8.56569C5.16418 8.71571 4.95692 8.8 4.74082 8.8ZM11.2593 12H7.18527C6.96916 12 6.76191 11.9157 6.60911 11.7657C6.4563 11.6157 6.37045 11.4122 6.37045 11.2C6.37045 10.9878 6.4563 10.7843 6.60911 10.6343C6.76191 10.4843 6.96916 10.4 7.18527 10.4H11.2593C11.4754 10.4 11.6827 10.4843 11.8355 10.6343C11.9883 10.7843 12.0742 10.9878 12.0742 11.2C12.0742 11.4122 11.9883 11.6157 11.8355 11.7657C11.6827 11.9157 11.4754 12 11.2593 12ZM11.2593 8.8H7.18527C6.96916 8.8 6.76191 8.71571 6.60911 8.56569C6.4563 8.41566 6.37045 8.21217 6.37045 8C6.37045 7.78783 6.4563 7.58434 6.60911 7.43431C6.76191 7.28429 6.96916 7.2 7.18527 7.2H11.2593C11.4754 7.2 11.6827 7.28429 11.8355 7.43431C11.9883 7.58434 12.0742 7.78783 12.0742 8C12.0742 8.21217 11.9883 8.41566 11.8355 8.56569C11.6827 8.71571 11.4754 8.8 11.2593 8.8Z" fill="#9CA3AF"/>
</g>
<defs>
<clipPath id="clip0_849_4461">
<rect width="16" height="16" fill="white"/>
</clipPath>
</defs>
</svg>
