<svg width="21" height="20" viewBox="0 0 21 20" fill="none" xmlns="http://www.w3.org/2000/svg">
<path d="M10.8834 8.73201C9.84887 8.52343 8.9399 7.96244 8.34123 7.163C8.24515 7.03643 8.1782 6.89332 8.14445 6.74235C8.11071 6.59139 8.11087 6.43573 8.14494 6.28482C8.44044 5.30907 10.1089 4.76558 11.723 5.12465C12.4758 5.27645 13.1582 5.63899 13.6753 6.16188C13.8111 6.30951 13.9775 6.43113 14.1649 6.51974C14.3523 6.60835 14.5569 6.6622 14.7672 6.67819C14.9774 6.69418 15.189 6.67199 15.3898 6.61291C15.5906 6.55383 15.7767 6.45901 15.9373 6.33392C16.0979 6.20883 16.2299 6.05593 16.3256 5.88402C16.4214 5.7121 16.479 5.52457 16.4953 5.3322C16.5115 5.13983 16.486 4.94643 16.4202 4.76311C16.3544 4.57979 16.2496 4.41019 16.1119 4.26404C15.1586 3.27317 13.8904 2.57988 12.4847 2.28131C12.3994 2.26179 12.3162 2.25984 12.2308 2.24423V1.46363C12.2308 1.07545 12.0622 0.703171 11.7621 0.428687C11.462 0.154203 11.055 0 10.6306 0C10.2062 0 9.79919 0.154203 9.49909 0.428687C9.19899 0.703171 9.03039 1.07545 9.03039 1.46363V2.26765C8.11092 2.4295 7.25646 2.8159 6.5576 3.38588C5.85873 3.95585 5.34152 4.68817 5.06078 5.5052C4.9117 6.03349 4.88096 6.58391 4.97043 7.12334C5.0599 7.66278 5.26771 8.1801 5.58138 8.64419C6.61359 10.1307 8.24707 11.1831 10.1249 11.5714C11.1599 11.7803 12.069 12.3421 12.6672 13.1424C12.7634 13.2689 12.8305 13.412 12.8644 13.563C12.8983 13.7139 12.8984 13.8696 12.8645 14.0206C12.5669 14.9963 10.8973 15.5379 9.28536 15.1808C8.52492 15.029 7.8366 14.6607 7.31922 14.1289C7.04564 13.8347 6.656 13.6513 6.23521 13.6187C5.81443 13.5861 5.39662 13.707 5.07285 13.955C4.74909 14.2029 4.54562 14.5579 4.50678 14.9425C4.46795 15.3271 4.59691 15.7102 4.86555 16.0082C5.82254 17.0184 7.10519 17.7249 8.52899 18.0261C8.69541 18.0631 8.86077 18.0817 9.02719 18.109V18.5364C9.02719 18.9245 9.19579 19.2968 9.49589 19.5713C9.79599 19.8458 10.203 20 10.6274 20C11.0518 20 11.4588 19.8458 11.7589 19.5713C12.059 19.2968 12.2276 18.9245 12.2276 18.5364V17.9948C13.0977 17.8043 13.8985 17.4098 14.5511 16.8501C15.2038 16.2905 15.6858 15.585 15.9497 14.8031C16.0985 14.2748 16.1289 13.7243 16.0393 13.1849C15.9497 12.6455 15.7418 12.1282 15.4281 11.6641C14.3963 10.1759 12.7624 9.12175 10.8834 8.73201Z" fill="#9CA3AF"/>
</svg>
