<svg width="14" height="14" viewBox="0 0 14 14" fill="none" xmlns="http://www.w3.org/2000/svg">
<path d="M7.0001 2.8C7.7733 2.8 8.4001 2.1732 8.4001 1.4C8.4001 0.626801 7.7733 0 7.0001 0C6.2269 0 5.6001 0.626801 5.6001 1.4C5.6001 2.1732 6.2269 2.8 7.0001 2.8Z" fill="#374151"/>
<path d="M7.0001 8.4C7.7733 8.4 8.4001 7.7732 8.4001 7C8.4001 6.2268 7.7733 5.6 7.0001 5.6C6.2269 5.6 5.6001 6.2268 5.6001 7C5.6001 7.7732 6.2269 8.4 7.0001 8.4Z" fill="#374151"/>
<path d="M7.0001 14C7.7733 14 8.4001 13.3732 8.4001 12.6C8.4001 11.8268 7.7733 11.2 7.0001 11.2C6.2269 11.2 5.6001 11.8268 5.6001 12.6C5.6001 13.3732 6.2269 14 7.0001 14Z" fill="#374151"/>
</svg>
