<svg width="16" height="16" viewBox="0 0 16 16" fill="none" xmlns="http://www.w3.org/2000/svg">
<path d="M14.4 9.60002C15.2837 9.60002 16 8.88368 16 8.00002C16 7.11637 15.2837 6.40002 14.4 6.40002C13.5163 6.40002 12.8 7.11637 12.8 8.00002C12.8 8.88368 13.5163 9.60002 14.4 9.60002Z" fill="#6B7280"/>
<path d="M8 9.60002C8.88366 9.60002 9.6 8.88368 9.6 8.00002C9.6 7.11637 8.88366 6.40002 8 6.40002C7.11634 6.40002 6.4 7.11637 6.4 8.00002C6.4 8.88368 7.11634 9.60002 8 9.60002Z" fill="#6B7280"/>
<path d="M1.6 9.60002C2.48366 9.60002 3.2 8.88368 3.2 8.00002C3.2 7.11637 2.48366 6.40002 1.6 6.40002C0.716344 6.40002 0 7.11637 0 8.00002C0 8.88368 0.716344 9.60002 1.6 9.60002Z" fill="#6B7280"/>
</svg>
