<svg width="12" height="13" viewBox="0 0 12 13" fill="none" xmlns="http://www.w3.org/2000/svg">
<g clip-path="url(#clip0_849_1934)">
<path d="M5.00391 7.24121L4.90234 7.10742L0.546875 1.36133L0.545898 1.35938L0.514648 1.30469C0.507296 1.28582 0.502779 1.26586 0.500977 1.24609C0.497423 1.20639 0.504536 1.16569 0.523438 1.12891C0.542453 1.09195 0.573294 1.05955 0.612305 1.03613C0.651384 1.01274 0.697576 0.999814 0.745117 1H11.2549C11.3024 0.999814 11.3486 1.01274 11.3877 1.03613C11.4267 1.05955 11.4575 1.09195 11.4766 1.12891C11.4955 1.16569 11.5026 1.20639 11.499 1.24609C11.4954 1.28594 11.4801 1.32549 11.4541 1.35938L11.4531 1.36133L7.09766 7.10742L6.99609 7.24121V11.5166L5.00391 10.0635V7.24121Z" fill="#1F2A37" stroke="#111928"/>
</g>
<defs>
<clipPath id="clip0_849_1934">
<rect width="12" height="12" fill="white" transform="translate(0 0.5)"/>
</clipPath>
</defs>
</svg>
