<svg width="25" height="24" viewBox="0 0 25 24" fill="none" xmlns="http://www.w3.org/2000/svg">
<g clip-path="url(#clip0_918_7646)">
<path d="M23.05 5.51995H21.85C21.5317 5.51995 21.2265 5.63374 21.0015 5.83628C20.7764 6.03882 20.65 6.31352 20.65 6.59995C20.65 6.88638 20.7764 7.16109 21.0015 7.36363C21.2265 7.56616 21.5317 7.67995 21.85 7.67995V19.5599C21.85 19.8464 21.7236 20.1211 21.4985 20.3236C21.2735 20.5262 20.9683 20.6399 20.65 20.6399C20.3317 20.6399 20.0265 20.5262 19.8015 20.3236C19.5764 20.1211 19.45 19.8464 19.45 19.5599V3.35995C19.45 2.78708 19.1971 2.23768 18.7471 1.8326C18.297 1.42752 17.6865 1.19995 17.05 1.19995H2.65C2.01348 1.19995 1.40303 1.42752 0.952944 1.8326C0.502856 2.23768 0.25 2.78708 0.25 3.35995V19.5599C0.25 20.4193 0.629285 21.2434 1.30442 21.851C1.97955 22.4586 2.89522 22.7999 3.85 22.7999H20.65C21.6048 22.7999 22.5205 22.4586 23.1956 21.851C23.8707 21.2434 24.25 20.4193 24.25 19.5599V6.59995C24.25 6.31352 24.1236 6.03882 23.8985 5.83628C23.6735 5.63374 23.3683 5.51995 23.05 5.51995ZM3.85 5.51995C3.85 5.23352 3.97643 4.95882 4.20147 4.75628C4.42652 4.55374 4.73174 4.43995 5.05 4.43995H8.65C8.96826 4.43995 9.27349 4.55374 9.49853 4.75628C9.72357 4.95882 9.85 5.23352 9.85 5.51995V8.75995C9.85 9.04638 9.72357 9.32109 9.49853 9.52363C9.27349 9.72616 8.96826 9.83995 8.65 9.83995H5.05C4.73174 9.83995 4.42652 9.72616 4.20147 9.52363C3.97643 9.32109 3.85 9.04638 3.85 8.75995V5.51995ZM14.65 19.5599H5.05C4.73174 19.5599 4.42652 19.4462 4.20147 19.2436C3.97643 19.0411 3.85 18.7664 3.85 18.4799C3.85 18.1935 3.97643 17.9188 4.20147 17.7163C4.42652 17.5137 4.73174 17.4 5.05 17.4H14.65C14.9683 17.4 15.2735 17.5137 15.4985 17.7163C15.7236 17.9188 15.85 18.1935 15.85 18.4799C15.85 18.7664 15.7236 19.0411 15.4985 19.2436C15.2735 19.4462 14.9683 19.5599 14.65 19.5599ZM14.65 16.32H5.05C4.73174 16.32 4.42652 16.2062 4.20147 16.0036C3.97643 15.8011 3.85 15.5264 3.85 15.24C3.85 14.9535 3.97643 14.6788 4.20147 14.4763C4.42652 14.2737 4.73174 14.16 5.05 14.16H14.65C14.9683 14.16 15.2735 14.2737 15.4985 14.4763C15.7236 14.6788 15.85 14.9535 15.85 15.24C15.85 15.5264 15.7236 15.8011 15.4985 16.0036C15.2735 16.2062 14.9683 16.32 14.65 16.32ZM14.65 13.08H5.05C4.73174 13.08 4.42652 12.9662 4.20147 12.7636C3.97643 12.5611 3.85 12.2864 3.85 12C3.85 11.7135 3.97643 11.4388 4.20147 11.2363C4.42652 11.0337 4.73174 10.92 5.05 10.92H14.65C14.9683 10.92 15.2735 11.0337 15.4985 11.2363C15.7236 11.4388 15.85 11.7135 15.85 12C15.85 12.2864 15.7236 12.5611 15.4985 12.7636C15.2735 12.9662 14.9683 13.08 14.65 13.08ZM14.65 9.83995H12.25C11.9317 9.83995 11.6265 9.72616 11.4015 9.52363C11.1764 9.32109 11.05 9.04638 11.05 8.75995C11.05 8.47352 11.1764 8.19881 11.4015 7.99628C11.6265 7.79374 11.9317 7.67995 12.25 7.67995H14.65C14.9683 7.67995 15.2735 7.79374 15.4985 7.99628C15.7236 8.19881 15.85 8.47352 15.85 8.75995C15.85 9.04638 15.7236 9.32109 15.4985 9.52363C15.2735 9.72616 14.9683 9.83995 14.65 9.83995ZM14.65 6.59995H12.25C11.9317 6.59995 11.6265 6.48617 11.4015 6.28363C11.1764 6.08109 11.05 5.80638 11.05 5.51995C11.05 5.23352 11.1764 4.95882 11.4015 4.75628C11.6265 4.55374 11.9317 4.43995 12.25 4.43995H14.65C14.9683 4.43995 15.2735 4.55374 15.4985 4.75628C15.7236 4.95882 15.85 5.23352 15.85 5.51995C15.85 5.80638 15.7236 6.08109 15.4985 6.28363C15.2735 6.48617 14.9683 6.59995 14.65 6.59995Z" fill="#1C64F2"/>
<path d="M7.45 6.59995H6.25V7.67995H7.45V6.59995Z" fill="#1C64F2"/>
</g>
<defs>
<clipPath id="clip0_918_7646">
<rect width="24" height="24" fill="white" transform="translate(0.25)"/>
</clipPath>
</defs>
</svg>
