<svg width="16" height="16" viewBox="0 0 16 16" fill="none" xmlns="http://www.w3.org/2000/svg">
<g clip-path="url(#clip0_849_4438)">
<path d="M15.2 3.68005H14.4C14.1878 3.68005 13.9843 3.75591 13.8343 3.89093C13.6843 4.02596 13.6 4.20909 13.6 4.40005C13.6 4.591 13.6843 4.77414 13.8343 4.90917C13.9843 5.04419 14.1878 5.12005 14.4 5.12005V13.04C14.4 13.231 14.3157 13.4141 14.1657 13.5492C14.0157 13.6842 13.8122 13.76 13.6 13.76C13.3878 13.76 13.1843 13.6842 13.0343 13.5492C12.8843 13.4141 12.8 13.231 12.8 13.04V2.24005C12.8 1.85814 12.6314 1.49187 12.3314 1.22181C12.0313 0.951763 11.6243 0.800049 11.2 0.800049H1.6C1.17565 0.800049 0.768687 0.951763 0.468629 1.22181C0.168571 1.49187 0 1.85814 0 2.24005V13.04C0 13.6129 0.252856 14.1623 0.702944 14.5674C1.15303 14.9725 1.76348 15.2 2.4 15.2H13.6C14.2365 15.2 14.847 14.9725 15.2971 14.5674C15.7471 14.1623 16 13.6129 16 13.04V4.40005C16 4.20909 15.9157 4.02596 15.7657 3.89093C15.6157 3.75591 15.4122 3.68005 15.2 3.68005ZM2.4 3.68005C2.4 3.48909 2.48429 3.30596 2.63431 3.17093C2.78434 3.03591 2.98783 2.96005 3.2 2.96005H5.6C5.81217 2.96005 6.01566 3.03591 6.16569 3.17093C6.31571 3.30596 6.4 3.48909 6.4 3.68005V5.84005C6.4 6.031 6.31571 6.21414 6.16569 6.34917C6.01566 6.48419 5.81217 6.56005 5.6 6.56005H3.2C2.98783 6.56005 2.78434 6.48419 2.63431 6.34917C2.48429 6.21414 2.4 6.031 2.4 5.84005V3.68005ZM9.6 13.04H3.2C2.98783 13.04 2.78434 12.9642 2.63431 12.8292C2.48429 12.6941 2.4 12.511 2.4 12.32C2.4 12.1291 2.48429 11.946 2.63431 11.8109C2.78434 11.6759 2.98783 11.6 3.2 11.6H9.6C9.81217 11.6 10.0157 11.6759 10.1657 11.8109C10.3157 11.946 10.4 12.1291 10.4 12.32C10.4 12.511 10.3157 12.6941 10.1657 12.8292C10.0157 12.9642 9.81217 13.04 9.6 13.04ZM9.6 10.88H3.2C2.98783 10.88 2.78434 10.8042 2.63431 10.6692C2.48429 10.5341 2.4 10.351 2.4 10.16C2.4 9.96909 2.48429 9.78596 2.63431 9.65093C2.78434 9.51591 2.98783 9.44005 3.2 9.44005H9.6C9.81217 9.44005 10.0157 9.51591 10.1657 9.65093C10.3157 9.78596 10.4 9.96909 10.4 10.16C10.4 10.351 10.3157 10.5341 10.1657 10.6692C10.0157 10.8042 9.81217 10.88 9.6 10.88ZM9.6 8.72005H3.2C2.98783 8.72005 2.78434 8.64419 2.63431 8.50917C2.48429 8.37414 2.4 8.191 2.4 8.00005C2.4 7.80909 2.48429 7.62596 2.63431 7.49093C2.78434 7.35591 2.98783 7.28005 3.2 7.28005H9.6C9.81217 7.28005 10.0157 7.35591 10.1657 7.49093C10.3157 7.62596 10.4 7.80909 10.4 8.00005C10.4 8.191 10.3157 8.37414 10.1657 8.50917C10.0157 8.64419 9.81217 8.72005 9.6 8.72005ZM9.6 6.56005H8C7.78783 6.56005 7.58434 6.48419 7.43431 6.34917C7.28429 6.21414 7.2 6.031 7.2 5.84005C7.2 5.64909 7.28429 5.46596 7.43431 5.33093C7.58434 5.19591 7.78783 5.12005 8 5.12005H9.6C9.81217 5.12005 10.0157 5.19591 10.1657 5.33093C10.3157 5.46596 10.4 5.64909 10.4 5.84005C10.4 6.031 10.3157 6.21414 10.1657 6.34917C10.0157 6.48419 9.81217 6.56005 9.6 6.56005ZM9.6 4.40005H8C7.78783 4.40005 7.58434 4.32419 7.43431 4.18917C7.28429 4.05414 7.2 3.871 7.2 3.68005C7.2 3.48909 7.28429 3.30596 7.43431 3.17093C7.58434 3.03591 7.78783 2.96005 8 2.96005H9.6C9.81217 2.96005 10.0157 3.03591 10.1657 3.17093C10.3157 3.30596 10.4 3.48909 10.4 3.68005C10.4 3.871 10.3157 4.05414 10.1657 4.18917C10.0157 4.32419 9.81217 4.40005 9.6 4.40005Z" fill="#1F2A37"/>
<path d="M4.8 4.40005H4V5.12005H4.8V4.40005Z" fill="#1F2A37"/>
</g>
<defs>
<clipPath id="clip0_849_4438">
<rect width="16" height="16" fill="white"/>
</clipPath>
</defs>
</svg>
