<svg width="12" height="13" viewBox="0 0 12 13" fill="none" xmlns="http://www.w3.org/2000/svg">
<path d="M10.2666 5.96662H6.53328V2.23328C6.53328 2.09184 6.47709 1.95618 6.37707 1.85616C6.27706 1.75614 6.1414 1.69995 5.99995 1.69995C5.8585 1.69995 5.72285 1.75614 5.62283 1.85616C5.52281 1.95618 5.46662 2.09184 5.46662 2.23328V5.96662H1.73328C1.59184 5.96662 1.45618 6.02281 1.35616 6.12283C1.25614 6.22285 1.19995 6.3585 1.19995 6.49995C1.19995 6.6414 1.25614 6.77706 1.35616 6.87707C1.45618 6.97709 1.59184 7.03328 1.73328 7.03328H5.46662V10.7666C5.46662 10.9081 5.52281 11.0437 5.62283 11.1437C5.72285 11.2438 5.8585 11.3 5.99995 11.3C6.1414 11.3 6.27706 11.2438 6.37707 11.1437C6.47709 11.0437 6.53328 10.9081 6.53328 10.7666V7.03328H10.2666C10.4081 7.03328 10.5437 6.97709 10.6437 6.87707C10.7438 6.77706 10.8 6.6414 10.8 6.49995C10.8 6.3585 10.7438 6.22285 10.6437 6.12283C10.5437 6.02281 10.4081 5.96662 10.2666 5.96662Z" fill="white"/>
</svg>
