<svg width="24" height="24" viewBox="0 0 24 24" fill="none" xmlns="http://www.w3.org/2000/svg">
<g clip-path="url(#clip0_918_8096)">
<path d="M12 18C15.3137 18 18 15.3137 18 12C18 8.68629 15.3137 6 12 6C8.68629 6 6 8.68629 6 12C6 15.3137 8.68629 18 12 18Z" fill="#046C4E"/>
<path d="M12 4.8C12.3183 4.8 12.6235 4.67357 12.8485 4.44853C13.0736 4.22348 13.2 3.91826 13.2 3.6V1.2C13.2 0.88174 13.0736 0.576515 12.8485 0.351472C12.6235 0.126428 12.3183 0 12 0C11.6817 0 11.3765 0.126428 11.1515 0.351472C10.9264 0.576515 10.8 0.88174 10.8 1.2V3.6C10.8 3.91826 10.9264 4.22348 11.1515 4.44853C11.3765 4.67357 11.6817 4.8 12 4.8Z" fill="#046C4E"/>
<path d="M12 19.2C11.6817 19.2 11.3765 19.3264 11.1515 19.5515C10.9264 19.7765 10.8 20.0817 10.8 20.4V22.8C10.8 23.1183 10.9264 23.4235 11.1515 23.6485C11.3765 23.8736 11.6817 24 12 24C12.3183 24 12.6235 23.8736 12.8485 23.6485C13.0736 23.4235 13.2 23.1183 13.2 22.8V20.4C13.2 20.0817 13.0736 19.7765 12.8485 19.5515C12.6235 19.3264 12.3183 19.2 12 19.2Z" fill="#046C4E"/>
<path d="M5.2116 6.9084C5.43792 7.12699 5.74105 7.24794 6.05568 7.24521C6.37032 7.24248 6.67129 7.11627 6.89378 6.89378C7.11627 6.67129 7.24248 6.37032 7.24521 6.05568C7.24794 5.74105 7.12699 5.43792 6.9084 5.2116L5.2116 3.5148C4.98528 3.29621 4.68216 3.17526 4.36752 3.17799C4.05288 3.18073 3.75191 3.30693 3.52942 3.52942C3.30693 3.75191 3.18073 4.05288 3.17799 4.36752C3.17526 4.68216 3.29621 4.98528 3.5148 5.2116L5.2116 6.9084Z" fill="#046C4E"/>
<path d="M18.7884 17.0916C18.5621 16.873 18.259 16.7521 17.9443 16.7548C17.6297 16.7575 17.3287 16.8837 17.1062 17.1062C16.8837 17.3287 16.7575 17.6297 16.7548 17.9443C16.7521 18.259 16.873 18.5621 17.0916 18.7884L18.7884 20.4852C19.0147 20.7038 19.3178 20.8247 19.6325 20.822C19.9471 20.8193 20.2481 20.6931 20.4706 20.4706C20.6931 20.2481 20.8193 19.9471 20.822 19.6325C20.8247 19.3178 20.7038 19.0147 20.4852 18.7884L18.7884 17.0916Z" fill="#046C4E"/>
<path d="M4.8 12C4.8 11.6817 4.67357 11.3765 4.44853 11.1515C4.22348 10.9264 3.91826 10.8 3.6 10.8H1.2C0.88174 10.8 0.576515 10.9264 0.351472 11.1515C0.126428 11.3765 0 11.6817 0 12C0 12.3183 0.126428 12.6235 0.351472 12.8485C0.576515 13.0736 0.88174 13.2 1.2 13.2H3.6C3.91826 13.2 4.22348 13.0736 4.44853 12.8485C4.67357 12.6235 4.8 12.3183 4.8 12Z" fill="#046C4E"/>
<path d="M22.8 10.8H20.4C20.0817 10.8 19.7765 10.9264 19.5515 11.1515C19.3264 11.3765 19.2 11.6817 19.2 12C19.2 12.3183 19.3264 12.6235 19.5515 12.8485C19.7765 13.0736 20.0817 13.2 20.4 13.2H22.8C23.1183 13.2 23.4235 13.0736 23.6485 12.8485C23.8736 12.6235 24 12.3183 24 12C24 11.6817 23.8736 11.3765 23.6485 11.1515C23.4235 10.9264 23.1183 10.8 22.8 10.8Z" fill="#046C4E"/>
<path d="M5.2116 17.0916L3.5148 18.7884C3.40019 18.8991 3.30877 19.0315 3.24588 19.1779C3.18299 19.3243 3.14988 19.4818 3.1485 19.6411C3.14712 19.8005 3.17748 19.9585 3.23781 20.1059C3.29815 20.2534 3.38725 20.3874 3.49993 20.5001C3.6126 20.6127 3.74658 20.7018 3.89406 20.7622C4.04153 20.8225 4.19955 20.8529 4.35888 20.8515C4.51822 20.8501 4.67568 20.817 4.82209 20.7541C4.96849 20.6912 5.1009 20.5998 5.2116 20.4852L6.9084 18.7884C7.12699 18.5621 7.24794 18.259 7.24521 17.9443C7.24248 17.6297 7.11627 17.3287 6.89378 17.1062C6.67129 16.8837 6.37032 16.7575 6.05568 16.7548C5.74105 16.7521 5.43792 16.873 5.2116 17.0916Z" fill="#046C4E"/>
<path d="M17.94 7.26C18.2582 7.25993 18.5634 7.13346 18.7884 6.9084L20.4852 5.2116C20.5998 5.1009 20.6912 4.96849 20.7541 4.82209C20.817 4.67568 20.8501 4.51822 20.8515 4.35888C20.8529 4.19955 20.8225 4.04153 20.7622 3.89406C20.7018 3.74658 20.6127 3.6126 20.5001 3.49993C20.3874 3.38725 20.2534 3.29815 20.1059 3.23781C19.9585 3.17748 19.8005 3.14712 19.6411 3.1485C19.4818 3.14988 19.3243 3.18299 19.1779 3.24588C19.0315 3.30877 18.8991 3.40019 18.7884 3.5148L17.0916 5.2116C16.9238 5.37942 16.8096 5.59322 16.7633 5.82596C16.717 6.05871 16.7408 6.29995 16.8316 6.51919C16.9224 6.73843 17.0762 6.92582 17.2734 7.05768C17.4707 7.18954 17.7027 7.25995 17.94 7.26Z" fill="#046C4E"/>
</g>
<defs>
<clipPath id="clip0_918_8096">
<rect width="24" height="24" fill="white"/>
</clipPath>
</defs>
</svg>
