<svg width="14" height="15" viewBox="0 0 14 15" fill="none" xmlns="http://www.w3.org/2000/svg">
<path d="M13.93 6.5407C13.93 6.53403 13.93 6.52663 13.9258 6.5207L12.5258 3.55774C12.4677 3.43471 12.3784 3.33123 12.2679 3.25889C12.1573 3.18654 12.03 3.14818 11.9 3.14811H9.1C9.1 2.75519 8.9525 2.37837 8.68995 2.10054C8.4274 1.82271 8.0713 1.66663 7.7 1.66663H1.4C1.0287 1.66663 0.672601 1.82271 0.41005 2.10054C0.1475 2.37837 0 2.75519 0 3.14811V9.81477C0 10.0112 0.0737498 10.1996 0.205025 10.3386C0.336301 10.4775 0.514348 10.5555 0.7 10.5555H0.91C0.888864 10.6778 0.876927 10.8016 0.8743 10.9259C0.8743 11.5644 1.11399 12.1767 1.54063 12.6282C1.96728 13.0797 2.54593 13.3333 3.1493 13.3333C3.75267 13.3333 4.33132 13.0797 4.75797 12.6282C5.18461 12.1767 5.4243 11.5644 5.4243 10.9259C5.42213 10.8017 5.41067 10.6778 5.39 10.5555H8.61C8.58886 10.6778 8.57693 10.8016 8.5743 10.9259C8.5743 11.5644 8.81399 12.1767 9.24063 12.6282C9.66728 13.0797 10.2459 13.3333 10.8493 13.3333C11.4527 13.3333 12.0313 13.0797 12.458 12.6282C12.8846 12.1767 13.1243 11.5644 13.1243 10.9259C13.1221 10.8017 13.1107 10.6778 13.09 10.5555H13.3C13.4857 10.5555 13.6637 10.4775 13.795 10.3386C13.9263 10.1996 14 10.0112 14 9.81477V6.85181C13.9986 6.74392 13.9747 6.63769 13.93 6.5407ZM11.4674 4.62959L12.1674 6.11107H9.1V4.62959H11.4674ZM3.15 11.8518C2.97694 11.8518 2.80777 11.7975 2.66388 11.6958C2.51998 11.594 2.40783 11.4494 2.34161 11.2802C2.27538 11.111 2.25805 10.9249 2.29181 10.7452C2.32557 10.5656 2.40891 10.4006 2.53128 10.2712C2.65365 10.1417 2.80956 10.0535 2.9793 10.0178C3.14903 9.98202 3.32496 10.0004 3.48485 10.0704C3.64473 10.1405 3.78139 10.2592 3.87754 10.4115C3.97368 10.5637 4.025 10.7428 4.025 10.9259C4.02463 11.1713 3.93232 11.4066 3.76831 11.5802C3.6043 11.7537 3.38195 11.8514 3.15 11.8518ZM10.85 11.8518C10.6769 11.8518 10.5078 11.7975 10.3639 11.6958C10.22 11.594 10.1078 11.4494 10.0416 11.2802C9.97538 11.111 9.95805 10.9249 9.99181 10.7452C10.0256 10.5656 10.1089 10.4006 10.2313 10.2712C10.3537 10.1417 10.5096 10.0535 10.6793 10.0178C10.849 9.98202 11.025 10.0004 11.1848 10.0704C11.3447 10.1405 11.4814 10.2592 11.5775 10.4115C11.6737 10.5637 11.725 10.7428 11.725 10.9259C11.7246 11.1713 11.6323 11.4066 11.4683 11.5802C11.3043 11.7537 11.082 11.8514 10.85 11.8518Z" fill="#6B7280"/>
</svg>
