<svg width="21" height="20" viewBox="0 0 21 20" fill="none" xmlns="http://www.w3.org/2000/svg">
<g clip-path="url(#clip0_849_5021)">
<path d="M15.207 4.40371L11.207 0.301308C11.1141 0.205798 11.0038 0.130021 10.8823 0.0783172C10.7608 0.0266138 10.6305 0 10.499 0C10.3675 0 10.2372 0.0266138 10.1157 0.0783172C9.99424 0.130021 9.88389 0.205798 9.791 0.301308L5.791 4.40371C5.60349 4.59629 5.49826 4.85737 5.49844 5.12953C5.49863 5.40169 5.60423 5.66262 5.792 5.85493C5.97977 6.04724 6.23434 6.15517 6.49971 6.15498C6.76507 6.15478 7.01949 6.04648 7.207 5.8539L9.5 3.5022V12.308C9.5 12.58 9.60536 12.8409 9.79289 13.0332C9.98043 13.2255 10.2348 13.3336 10.5 13.3336C10.7652 13.3336 11.0196 13.2255 11.2071 13.0332C11.3946 12.8409 11.5 12.58 11.5 12.308V3.5022L13.793 5.8539C13.9816 6.04073 14.2342 6.1441 14.4964 6.14176C14.7586 6.13943 15.0094 6.03157 15.1948 5.84141C15.3802 5.65126 15.4854 5.39402 15.4877 5.12511C15.49 4.85621 15.3892 4.59714 15.207 4.40371Z" fill="#6B7280"/>
<path d="M18.5 11.7952H13.5V12.308C13.5 13.124 13.1839 13.9066 12.6213 14.4836C12.0587 15.0606 11.2956 15.3848 10.5 15.3848C9.70435 15.3848 8.94129 15.0606 8.37868 14.4836C7.81607 13.9066 7.5 13.124 7.5 12.308V11.7952H2.5C1.96957 11.7952 1.46086 12.0113 1.08579 12.396C0.710714 12.7807 0.5 13.3024 0.5 13.8464V17.9488C0.5 18.4928 0.710714 19.0145 1.08579 19.3992C1.46086 19.7839 1.96957 20 2.5 20H18.5C19.0304 20 19.5391 19.7839 19.9142 19.3992C20.2893 19.0145 20.5 18.4928 20.5 17.9488V13.8464C20.5 13.3024 20.2893 12.7807 19.9142 12.396C19.5391 12.0113 19.0304 11.7952 18.5 11.7952ZM16 17.9488C15.7033 17.9488 15.4133 17.8586 15.1666 17.6895C14.92 17.5205 14.7277 17.2802 14.6142 16.9991C14.5007 16.718 14.4709 16.4087 14.5288 16.1103C14.5867 15.8119 14.7296 15.5377 14.9393 15.3226C15.1491 15.1074 15.4164 14.9609 15.7074 14.9016C15.9983 14.8422 16.2999 14.8727 16.574 14.9891C16.8481 15.1055 17.0824 15.3027 17.2472 15.5557C17.412 15.8087 17.5 16.1061 17.5 16.4104C17.5 16.8184 17.342 17.2097 17.0607 17.4982C16.7794 17.7867 16.3978 17.9488 16 17.9488Z" fill="#6B7280"/>
</g>
<defs>
<clipPath id="clip0_849_5021">
<rect width="20" height="20" fill="white" transform="translate(0.5)"/>
</clipPath>
</defs>
</svg>
