<svg width="16" height="16" viewBox="0 0 16 16" fill="none" xmlns="http://www.w3.org/2000/svg">
<g clip-path="url(#clip0_849_4430)">
<path d="M14.4 0.666748H1.6C1.17565 0.666748 0.768687 0.838431 0.468629 1.14403C0.168571 1.44963 0 1.86411 0 2.29629V10.444C0 10.8762 0.168571 11.2907 0.468629 11.5963C0.768687 11.9019 1.17565 12.0735 1.6 12.0735H4.4368L6.9968 15.0548C7.07189 15.1423 7.16449 15.2124 7.26839 15.2605C7.37229 15.3086 7.48509 15.3334 7.5992 15.3334C7.71331 15.3334 7.82611 15.3086 7.93001 15.2605C8.03391 15.2124 8.12651 15.1423 8.2016 15.0548L10.7632 12.0735H14.4C14.8243 12.0735 15.2313 11.9019 15.5314 11.5963C15.8314 11.2907 16 10.8762 16 10.444V2.29629C16 1.86411 15.8314 1.44963 15.5314 1.14403C15.2313 0.838431 14.8243 0.666748 14.4 0.666748ZM8 8.81445H4C3.78783 8.81445 3.58434 8.72861 3.43431 8.57581C3.28429 8.42301 3.2 8.21577 3.2 7.99968C3.2 7.78359 3.28429 7.57635 3.43431 7.42355C3.58434 7.27075 3.78783 7.18491 4 7.18491H8C8.21217 7.18491 8.41566 7.27075 8.56569 7.42355C8.71571 7.57635 8.8 7.78359 8.8 7.99968C8.8 8.21577 8.71571 8.42301 8.56569 8.57581C8.41566 8.72861 8.21217 8.81445 8 8.81445ZM12 5.55537H4C3.78783 5.55537 3.58434 5.46953 3.43431 5.31673C3.28429 5.16393 3.2 4.95669 3.2 4.7406C3.2 4.52451 3.28429 4.31727 3.43431 4.16447C3.58434 4.01167 3.78783 3.92583 4 3.92583H12C12.2122 3.92583 12.4157 4.01167 12.5657 4.16447C12.7157 4.31727 12.8 4.52451 12.8 4.7406C12.8 4.95669 12.7157 5.16393 12.5657 5.31673C12.4157 5.46953 12.2122 5.55537 12 5.55537Z" fill="#9CA3AF"/>
</g>
<defs>
<clipPath id="clip0_849_4430">
<rect width="16" height="16" fill="white"/>
</clipPath>
</defs>
</svg>
