<svg width="16" height="16" viewBox="0 0 16 16" fill="none" xmlns="http://www.w3.org/2000/svg">
<g clip-path="url(#clip0_849_4454)">
<path d="M14.5772 4.7384C14.5612 4.53708 14.4676 4.34908 14.3151 4.21213C14.1626 4.07518 13.9625 3.9994 13.755 4H11.2886V3.2C11.2886 2.35131 10.9422 1.53737 10.3255 0.937258C9.70874 0.337142 8.87228 0 8.00011 0C7.12794 0 6.29149 0.337142 5.67477 0.937258C5.05805 1.53737 4.71159 2.35131 4.71159 3.2V4H2.24519C2.03768 3.9994 1.83762 4.07518 1.68514 4.21213C1.53266 4.34908 1.43904 4.53708 1.42306 4.7384L0.67163 14.2768C0.654182 14.4966 0.683618 14.7176 0.75809 14.9259C0.832561 15.1341 0.950462 15.3251 1.10439 15.4869C1.25832 15.6487 1.44496 15.7778 1.65259 15.8661C1.86022 15.9544 2.08437 16 2.31096 16H13.6893C13.9158 16 14.1399 15.9544 14.3474 15.8662C14.555 15.7779 14.7416 15.6489 14.8955 15.4872C15.0494 15.3255 15.1673 15.1346 15.2419 14.9264C15.3164 14.7183 15.3459 14.4974 15.3286 14.2776L14.5772 4.7384ZM6.35585 7.2C6.35585 7.41217 6.26923 7.61566 6.11505 7.76569C5.96087 7.91571 5.75176 8 5.53372 8C5.31567 8 5.10656 7.91571 4.95238 7.76569C4.7982 7.61566 4.71159 7.41217 4.71159 7.2V5.6H6.35585V7.2ZM6.35585 3.2C6.35585 2.77565 6.52908 2.36869 6.83744 2.06863C7.1458 1.76857 7.56403 1.6 8.00011 1.6C8.4362 1.6 8.85442 1.76857 9.16278 2.06863C9.47114 2.36869 9.64438 2.77565 9.64438 3.2V4H6.35585V3.2ZM11.2886 7.2C11.2886 7.41217 11.202 7.61566 11.0478 7.76569C10.8937 7.91571 10.6846 8 10.4665 8C10.2485 8 10.0394 7.91571 9.88517 7.76569C9.73099 7.61566 9.64438 7.41217 9.64438 7.2V5.6H11.2886V7.2Z" fill="#9CA3AF"/>
</g>
<defs>
<clipPath id="clip0_849_4454">
<rect width="16" height="16" fill="white"/>
</clipPath>
</defs>
</svg>
