<svg width="20" height="20" viewBox="0 0 20 20" fill="none" xmlns="http://www.w3.org/2000/svg">
<g clip-path="url(#clip0_849_4025)">
<path d="M18.8235 3.4523H1.17647C0.864451 3.4523 0.565212 3.31433 0.344581 3.06875C0.123949 2.82317 0 2.49008 0 2.14278C0 1.79547 0.123949 1.46239 0.344581 1.2168C0.565212 0.971219 0.864451 0.833252 1.17647 0.833252H18.8235C19.1355 0.833252 19.4348 0.971219 19.6554 1.2168C19.8761 1.46239 20 1.79547 20 2.14278C20 2.49008 19.8761 2.82317 19.6554 3.06875C19.4348 3.31433 19.1355 3.4523 18.8235 3.4523Z" fill="#6B7280"/>
<path d="M18.8235 11.3094H1.17647C0.864451 11.3094 0.565212 11.1715 0.344581 10.9259C0.123949 10.6803 0 10.3472 0 9.99992C0 9.65261 0.123949 9.31953 0.344581 9.07395C0.565212 8.82836 0.864451 8.69039 1.17647 8.69039H18.8235C19.1355 8.69039 19.4348 8.82836 19.6554 9.07395C19.8761 9.31953 20 9.65261 20 9.99992C20 10.3472 19.8761 10.6803 19.6554 10.9259C19.4348 11.1715 19.1355 11.3094 18.8235 11.3094Z" fill="#6B7280"/>
<path d="M18.8235 19.1666H1.17647C0.864451 19.1666 0.565212 19.0286 0.344581 18.783C0.123949 18.5375 0 18.2044 0 17.8571C0 17.5098 0.123949 17.1767 0.344581 16.9311C0.565212 16.6855 0.864451 16.5475 1.17647 16.5475H18.8235C19.1355 16.5475 19.4348 16.6855 19.6554 16.9311C19.8761 17.1767 20 17.5098 20 17.8571C20 18.2044 19.8761 18.5375 19.6554 18.783C19.4348 19.0286 19.1355 19.1666 18.8235 19.1666Z" fill="#6B7280"/>
</g>
<defs>
<clipPath id="clip0_849_4025">
<rect width="20" height="20" fill="white"/>
</clipPath>
</defs>
</svg>
