<svg width="21" height="20" viewBox="0 0 21 20" fill="none" xmlns="http://www.w3.org/2000/svg">
<g clip-path="url(#clip0_849_789)">
<path d="M19.6389 16.25H2.97222V2.70829C2.97222 2.13329 2.47556 1.66663 1.86111 1.66663C1.24667 1.66663 0.75 2.13329 0.75 2.70829V17.2916C0.75 17.8666 1.24667 18.3333 1.86111 18.3333H19.6389C20.2533 18.3333 20.75 17.8666 20.75 17.2916C20.75 16.7166 20.2533 16.25 19.6389 16.25Z" fill="#9CA3AF"/>
<path d="M7.63889 11.6666C7.83222 11.9083 8.12667 12.0593 8.44889 12.0802C8.78333 12.101 9.08556 11.9916 9.31333 11.777L12.9722 8.34788L15.8456 11.0416H14.9644C14.35 11.0416 13.8533 11.5083 13.8533 12.0833C13.8533 12.6583 14.35 13.125 14.9644 13.125H18.5278C18.6722 13.125 18.8167 13.0968 18.9522 13.0448C19.2244 12.9395 19.4411 12.7364 19.5533 12.4812C19.61 12.3541 19.6389 12.2187 19.6389 12.0833V8.74267C19.6389 8.16767 19.1422 7.701 18.5278 7.701C17.9133 7.701 17.4167 8.16767 17.4167 8.74267V9.56871L13.7578 6.1385C13.3233 5.73121 12.6211 5.73121 12.1867 6.1385L8.64778 9.45621L6.08333 6.24996C5.71445 5.78954 5.01889 5.69475 4.52778 6.04163C4.03667 6.38642 3.93667 7.03954 4.30556 7.49996L7.63889 11.6666Z" fill="#9CA3AF"/>
</g>
<defs>
<clipPath id="clip0_849_789">
<rect width="20" height="20" fill="white" transform="translate(0.75)"/>
</clipPath>
</defs>
</svg>
