<svg width="20" height="20" viewBox="0 0 20 20" fill="none" xmlns="http://www.w3.org/2000/svg">
<path d="M18.972 0.863C18.9664 0.79265 18.9526 0.723188 18.931 0.656C18.9027 0.588797 18.8668 0.52505 18.824 0.466C18.8049 0.42595 18.7832 0.3872 18.759 0.35C18.751 0.34 18.739 0.337 18.731 0.328C18.6782 0.276093 18.6199 0.230151 18.557 0.191C18.5126 0.155704 18.4654 0.12394 18.416 0.0959999C18.3605 0.0755391 18.3033 0.0598165 18.2451 0.049C18.1777 0.0279678 18.1083 0.0142223 18.0381 0.0079999C18.0251 0.0069999 18.0141 0 18.0001 0H14.7933C14.5281 0 14.2738 0.105357 14.0862 0.292893C13.8987 0.48043 13.7934 0.734783 13.7934 1C13.7934 1.26522 13.8987 1.51957 14.0862 1.70711C14.2738 1.89464 14.5281 2 14.7933 2H15.2933L10.7416 5.9L7.24185 5.026C7.09254 4.98866 6.93664 4.98628 6.78627 5.01907C6.6359 5.05185 6.49512 5.1189 6.37491 5.215L1.37527 9.215C1.16815 9.38076 1.03536 9.62201 1.0061 9.88569C0.97685 10.1494 1.05353 10.4139 1.21928 10.621C1.38503 10.8281 1.62627 10.9609 1.88992 10.9902C2.15358 11.0194 2.41806 10.9428 2.62518 10.777L7.23885 7.09L10.7586 7.97C10.9133 8.00849 11.075 8.00942 11.2302 7.97272C11.3853 7.93601 11.5294 7.86274 11.6505 7.759L17.0001 3.173V4.207C17.0001 4.47222 17.1055 4.72657 17.293 4.91411C17.4805 5.10164 17.7349 5.207 18.0001 5.207C18.2653 5.207 18.5196 5.10164 18.7071 4.91411C18.8947 4.72657 19 4.47222 19 4.207V1C18.9942 0.953676 18.9849 0.907871 18.972 0.863Z" fill="#9CA3AF"/>
<path d="M13.5004 9C12.4127 9 11.3494 9.32257 10.445 9.92692C9.54057 10.5313 8.83568 11.3902 8.41943 12.3952C8.00317 13.4002 7.89426 14.5061 8.10647 15.573C8.31867 16.6399 8.84245 17.6199 9.61159 18.3891C10.3807 19.1583 11.3607 19.6821 12.4275 19.8943C13.4943 20.1065 14.6001 19.9976 15.605 19.5813C16.6099 19.1651 17.4688 18.4601 18.0731 17.5556C18.6775 16.6512 19 15.5878 19 14.5C19 13.0413 18.4206 11.6424 17.3892 10.6109C16.3578 9.57946 14.959 9 13.5004 9ZM13.7404 13.591C14.5415 13.7754 15.2371 14.2694 15.6752 14.965C15.8192 15.1995 15.9142 15.4608 15.9544 15.733C15.9946 16.0053 15.9792 16.2829 15.9092 16.549C15.8095 16.8835 15.6335 17.1903 15.3951 17.4452C15.1567 17.7001 14.8624 17.8962 14.5353 18.018C14.5233 18.262 14.4208 18.4927 14.2478 18.6651C14.0748 18.8375 13.8438 18.9393 13.5998 18.9505C13.3558 18.9618 13.1164 18.8817 12.9283 18.7259C12.7402 18.5701 12.6169 18.3498 12.5825 18.108C12.0094 17.9569 11.4954 17.6362 11.1076 17.188C10.9374 16.9843 10.8552 16.7214 10.8789 16.457C10.9026 16.1927 11.0304 15.9486 11.2341 15.7785C11.4377 15.6084 11.7006 15.5261 11.965 15.5498C12.2293 15.5736 12.4733 15.7013 12.6435 15.905C12.7779 16.0523 12.9552 16.1538 13.1504 16.195C13.2915 16.2489 13.4451 16.2605 13.5927 16.2286C13.7402 16.1966 13.8753 16.1224 13.9814 16.015C13.9005 15.8912 13.7957 15.7849 13.6731 15.7022C13.5504 15.6196 13.4125 15.5624 13.2674 15.534C12.4663 15.35 11.7709 14.8559 11.3336 14.16C11.19 13.9253 11.0953 13.664 11.0553 13.3918C11.0152 13.1196 11.0306 12.8421 11.1006 12.576C11.2052 12.2293 11.3914 11.9127 11.6437 11.6529C11.896 11.3931 12.207 11.1977 12.5505 11.083V11.053C12.5505 10.7878 12.6558 10.5334 12.8433 10.3459C13.0309 10.1584 13.2852 10.053 13.5504 10.053C13.8156 10.053 14.0699 10.1584 14.2574 10.3459C14.445 10.5334 14.5503 10.7878 14.5503 11.053C15.0669 11.2116 15.5295 11.5099 15.8872 11.915C15.9726 12.0151 16.0374 12.131 16.0779 12.2561C16.1185 12.3812 16.134 12.5131 16.1236 12.6442C16.1132 12.7753 16.0771 12.9031 16.0173 13.0203C15.9576 13.1374 15.8753 13.2416 15.7752 13.327C15.6752 13.4124 15.5593 13.4772 15.4342 13.5177C15.3091 13.5583 15.1772 13.5738 15.0461 13.5634C14.915 13.553 14.7872 13.5169 14.6701 13.4571C14.5529 13.3973 14.4487 13.3151 14.3633 13.215C14.2279 13.0696 14.0508 12.9697 13.8564 12.929C13.7157 12.8752 13.5623 12.8635 13.4151 12.8955C13.2679 12.9275 13.1332 13.0017 13.0274 13.109C13.1083 13.2326 13.213 13.3389 13.3354 13.4217C13.4578 13.5045 13.5955 13.562 13.7404 13.591Z" fill="#9CA3AF"/>
<path d="M6.00094 20C5.73574 20 5.4814 19.8946 5.29388 19.7071C5.10636 19.5196 5.00101 19.2652 5.00101 19V13C5.00101 12.7348 5.10636 12.4804 5.29388 12.2929C5.4814 12.1054 5.73574 12 6.00094 12C6.26613 12 6.52047 12.1054 6.70799 12.2929C6.89551 12.4804 7.00086 12.7348 7.00086 13V19C7.00086 19.2652 6.89551 19.5196 6.70799 19.7071C6.52047 19.8946 6.26613 20 6.00094 20Z" fill="#9CA3AF"/>
<path d="M2.00122 20C1.73603 20 1.48169 19.8946 1.29417 19.7071C1.10665 19.5196 1.0013 19.2652 1.0013 19V15C1.0013 14.7348 1.10665 14.4804 1.29417 14.2929C1.48169 14.1054 1.73603 14 2.00122 14C2.26642 14 2.52076 14.1054 2.70828 14.2929C2.8958 14.4804 3.00115 14.7348 3.00115 15V19C3.00115 19.2652 2.8958 19.5196 2.70828 19.7071C2.52076 19.8946 2.26642 20 2.00122 20Z" fill="#9CA3AF"/>
</svg>
