<svg width="10" height="10" viewBox="0 0 10 10" fill="none" xmlns="http://www.w3.org/2000/svg">
<path d="M2.33459 6.74219C2.36062 6.74245 2.38552 6.74789 2.40784 6.75684C2.4303 6.76589 2.44867 6.77854 2.46252 6.79199L2.46936 6.79785L4.66174 8.85547L5.00452 9.17676L5.34631 8.85547L7.53284 6.80371C7.56231 6.777 7.60772 6.75746 7.66077 6.75781C7.71395 6.75825 7.75904 6.77874 7.78772 6.80566C7.80149 6.8186 7.8112 6.83167 7.81702 6.84473L7.82483 6.88184C7.82504 6.90416 7.81645 6.93196 7.78967 6.95801L5.13245 9.45215C5.10343 9.47939 5.05738 9.49901 5.00354 9.49902C4.94999 9.49884 4.9045 9.47928 4.87561 9.45215L2.21252 6.95215L2.20569 6.94629C2.19124 6.93317 2.18144 6.9193 2.17542 6.90625C2.16945 6.89321 2.16675 6.88013 2.16663 6.86816C2.16652 6.85618 2.16877 6.84308 2.17444 6.83008C2.18014 6.81709 2.18969 6.80326 2.20374 6.79004C2.21795 6.7767 2.23673 6.76461 2.2594 6.75586C2.28223 6.74709 2.30828 6.74197 2.33459 6.74219ZM5.00452 0.5C5.05816 0.500099 5.10348 0.520695 5.13245 0.547852L7.79651 3.04785C7.81726 3.06747 7.82783 3.08848 7.83167 3.10645C7.83544 3.12424 7.83319 3.14315 7.82483 3.16211C7.8163 3.18143 7.79987 3.20317 7.77209 3.2207C7.74382 3.23844 7.70714 3.24997 7.6676 3.25L7.59436 3.23633C7.57245 3.22782 7.55327 3.21583 7.5387 3.20215L5.34631 1.14453L5.00452 0.823242L4.66174 1.14453L2.46936 3.20215L2.46252 3.20801C2.44868 3.22143 2.43026 3.23412 2.40784 3.24316C2.38553 3.25209 2.3606 3.25755 2.33459 3.25781C2.30828 3.25803 2.28223 3.25291 2.2594 3.24414C2.23671 3.23539 2.21796 3.22331 2.20374 3.20996C2.18969 3.19676 2.18015 3.1829 2.17444 3.16992C2.16878 3.15694 2.16652 3.14381 2.16663 3.13184C2.16674 3.11985 2.16944 3.10682 2.17542 3.09375C2.18143 3.08069 2.19124 3.06685 2.20569 3.05371L2.21252 3.04785L4.87561 0.547852C4.90464 0.52061 4.95068 0.5 5.00452 0.5Z" fill="#9CA3AF" stroke="#9CA3AF"/>
</svg>
