<svg width="25" height="24" viewBox="0 0 25 24" fill="none" xmlns="http://www.w3.org/2000/svg">
<path d="M21.0556 1.2H17.0491C16.8363 0.836351 16.5298 0.534051 16.1604 0.323427C15.791 0.112804 15.3716 0.00126473 14.9444 0H10.0556C9.62838 0.00126473 9.20905 0.112804 8.83964 0.323427C8.47023 0.534051 8.16373 0.836351 7.95089 1.2H3.94444C3.29614 1.2 2.67438 1.45286 2.21596 1.90294C1.75754 2.35303 1.5 2.96348 1.5 3.6V21.6C1.5 22.2365 1.75754 22.847 2.21596 23.2971C2.67438 23.7471 3.29614 24 3.94444 24H21.0556C21.7039 24 22.3256 23.7471 22.784 23.2971C23.2425 22.847 23.5 22.2365 23.5 21.6V3.6C23.5 2.96348 23.2425 2.35303 22.784 1.90294C22.3256 1.45286 21.7039 1.2 21.0556 1.2ZM10.0556 2.4H14.9444V6H10.0556V2.4ZM17.0222 12.3468L12.1639 16.9752C11.9358 17.1926 11.6305 17.3141 11.3126 17.3141C10.9948 17.3141 10.6894 17.1926 10.4613 16.9752L7.97778 14.6184C7.86254 14.5081 7.77055 14.3766 7.70708 14.2314C7.6436 14.0861 7.60988 13.9301 7.60784 13.7721C7.6058 13.6141 7.63547 13.4572 7.69517 13.3105C7.75487 13.1637 7.84342 13.0299 7.95578 12.9168C8.06813 12.8037 8.20208 12.7133 8.34999 12.651C8.49789 12.5887 8.65684 12.5556 8.81778 12.5536C8.97871 12.5516 9.13847 12.5807 9.28794 12.6393C9.4374 12.6979 9.57365 12.7849 9.68889 12.8952L11.312 14.442L15.3209 10.6248C15.4349 10.5099 15.5713 10.4187 15.7219 10.3565C15.8724 10.2943 16.0342 10.2623 16.1976 10.2625C16.3609 10.2627 16.5226 10.2951 16.673 10.3577C16.8234 10.4203 16.9596 10.5118 17.0733 10.627C17.1871 10.7421 17.2761 10.8785 17.3353 11.028C17.3945 11.1775 17.4225 11.3371 17.4177 11.4975C17.413 11.6578 17.3755 11.8156 17.3076 11.9615C17.2396 12.1073 17.1426 12.2384 17.0222 12.3468Z" fill="#E3A008"/>
</svg>
