<svg width="15" height="15" viewBox="0 0 15 15" fill="none" xmlns="http://www.w3.org/2000/svg">
<path d="M6.69336 2.8374C6.83419 2.25924 7.65041 2.25441 7.80273 2.82275L7.80664 2.8374C7.86495 3.07803 7.97962 3.30165 8.14062 3.48975C8.30161 3.67773 8.50473 3.82475 8.7334 3.91943C8.96218 4.01417 9.21016 4.05388 9.45703 4.03467C9.70382 4.01542 9.943 3.93803 10.1543 3.80908L10.1533 3.80811C10.6659 3.49627 11.2526 4.08361 10.9404 4.59619C10.8115 4.80753 10.735 5.04663 10.7158 5.29346C10.6966 5.5403 10.7354 5.78833 10.8301 6.01709C10.9248 6.24584 11.0727 6.44886 11.2607 6.60986C11.4488 6.77084 11.6725 6.88556 11.9131 6.94385C12.495 7.08505 12.496 7.91439 11.9121 8.05615C11.6718 8.11464 11.4486 8.22922 11.2607 8.39014C11.0729 8.5511 10.9257 8.75435 10.8311 8.98291C10.7364 9.21158 10.6967 9.45978 10.7158 9.70654C10.7349 9.95308 10.8119 10.1916 10.9404 10.4028C11.2529 10.9156 10.6661 11.5024 10.1533 11.1899C9.94213 11.0614 9.70353 10.9845 9.45703 10.9653C9.21027 10.9462 8.96207 10.9859 8.7334 11.0806C8.50477 11.1752 8.30163 11.3223 8.14062 11.5103C7.97969 11.6981 7.86516 11.9213 7.80664 12.1616V12.1626C7.66565 12.7447 6.83645 12.7461 6.69434 12.1626C6.63604 11.922 6.52133 11.6984 6.36035 11.5103C6.19937 11.3222 5.99629 11.1743 5.76758 11.0796C5.53888 10.9849 5.29073 10.9462 5.04395 10.9653C4.7972 10.9845 4.55796 11.0611 4.34668 11.1899C3.83408 11.5023 3.2478 10.9165 3.55957 10.4038C3.68855 10.1925 3.76593 9.9534 3.78516 9.70654C3.80437 9.45967 3.76466 9.21169 3.66992 8.98291C3.57524 8.75428 3.42819 8.5511 3.24023 8.39014C3.05217 8.22916 2.82847 8.11447 2.58789 8.05615C2.04202 7.92397 2.00644 7.18656 2.48535 6.97803L2.58789 6.94385C3.62232 6.69242 4.11388 5.50567 3.55957 4.59619C3.24767 4.08361 3.83411 3.49712 4.34668 3.80908C4.55809 3.93786 4.79714 4.01563 5.04395 4.03467C5.29075 4.05371 5.53892 4.01426 5.76758 3.91943C5.99606 3.82465 6.19855 3.67671 6.35938 3.48877C6.5201 3.30086 6.63507 3.0777 6.69336 2.8374ZM7.25 4.8999C6.56056 4.89996 5.89964 5.17413 5.41211 5.66162C4.92461 6.14912 4.65049 6.81009 4.65039 7.49951C4.65039 8.18907 4.92451 8.85078 5.41211 9.33838C5.89964 9.82581 6.5606 10.1 7.25 10.1001C7.93956 10.1001 8.60127 9.82597 9.08887 9.33838C9.57641 8.85079 9.85059 8.18903 9.85059 7.49951C9.85048 6.81018 9.57625 6.14911 9.08887 5.66162C8.60127 5.17403 7.93956 4.8999 7.25 4.8999Z" fill="white" stroke="white"/>
</svg>
