<svg width="16" height="16" viewBox="0 0 16 16" fill="none" xmlns="http://www.w3.org/2000/svg">
<g clip-path="url(#clip0_849_4476)">
<path d="M0.666748 10.9848V12.8C0.666748 14.9008 4.35541 16 8.00008 16C11.6447 16 15.3334 14.9008 15.3334 12.8V10.9848C13.5661 12.2816 10.6442 12.8 8.00008 12.8C5.35601 12.8 2.43408 12.2816 0.666748 10.9848Z" fill="#9CA3AF"/>
<path d="M0.666748 6.1848V8C0.666748 10.1008 4.35541 11.2 8.00008 11.2C11.6447 11.2 15.3334 10.1008 15.3334 8V6.1848C13.5661 7.4816 10.6442 8 8.00008 8C5.35601 8 2.43408 7.4816 0.666748 6.1848Z" fill="#9CA3AF"/>
<path d="M8.00008 6.4C12.0502 6.4 15.3334 4.96731 15.3334 3.2C15.3334 1.43269 12.0502 0 8.00008 0C3.94999 0 0.666748 1.43269 0.666748 3.2C0.666748 4.96731 3.94999 6.4 8.00008 6.4Z" fill="#9CA3AF"/>
</g>
<defs>
<clipPath id="clip0_849_4476">
<rect width="16" height="16" fill="white"/>
</clipPath>
</defs>
</svg>
