<svg width="25" height="24" viewBox="0 0 25 24" fill="none" xmlns="http://www.w3.org/2000/svg">
<g clip-path="url(#clip0_918_4100)">
<path d="M12.75 0C10.3766 0 8.05655 0.703788 6.08316 2.02236C4.10977 3.34094 2.5717 5.21508 1.66345 7.4078C0.755199 9.60051 0.517559 12.0133 0.980582 14.3411C1.4436 16.6689 2.58649 18.807 4.26472 20.4853C5.94295 22.1635 8.08115 23.3064 10.4089 23.7694C12.7367 24.2324 15.1495 23.9948 17.3422 23.0865C19.5349 22.1783 21.4091 20.6402 22.7276 18.6668C24.0462 16.6934 24.75 14.3734 24.75 12C24.7465 8.81847 23.4811 5.76826 21.2314 3.51858C18.9817 1.2689 15.9315 0.00349392 12.75 0ZM12.75 18C12.5127 18 12.2807 17.9296 12.0833 17.7978C11.886 17.6659 11.7322 17.4785 11.6413 17.2592C11.5505 17.0399 11.5268 16.7987 11.5731 16.5659C11.6194 16.3331 11.7337 16.1193 11.9015 15.9515C12.0693 15.7836 12.2831 15.6694 12.5159 15.6231C12.7487 15.5768 12.99 15.6005 13.2092 15.6913C13.4285 15.7822 13.6159 15.936 13.7478 16.1333C13.8796 16.3307 13.95 16.5627 13.95 16.8C13.95 17.1183 13.8236 17.4235 13.5985 17.6485C13.3735 17.8736 13.0683 18 12.75 18ZM13.95 13.2C13.95 13.5183 13.8236 13.8235 13.5985 14.0485C13.3735 14.2736 13.0683 14.4 12.75 14.4C12.4317 14.4 12.1265 14.2736 11.9015 14.0485C11.6764 13.8235 11.55 13.5183 11.55 13.2V7.2C11.55 6.88174 11.6764 6.57651 11.9015 6.35147C12.1265 6.12643 12.4317 6 12.75 6C13.0683 6 13.3735 6.12643 13.5985 6.35147C13.8236 6.57651 13.95 6.88174 13.95 7.2V13.2Z" fill="#9B1C1C"/>
</g>
<defs>
<clipPath id="clip0_918_4100">
<rect width="24" height="24" fill="white" transform="translate(0.75)"/>
</clipPath>
</defs>
</svg>
