<svg width="13" height="12" viewBox="0 0 13 12" fill="none" xmlns="http://www.w3.org/2000/svg">
<g clip-path="url(#clip0_849_4414)">
<path d="M9.50488 0.5L9.6416 0.515625C9.77432 0.54445 9.89612 0.611567 9.99121 0.708984C10.118 0.839037 10.1874 1.01336 10.1846 1.19238V3.75879C9.2733 3.62204 8.3365 3.75182 7.49121 4.13965C6.44571 4.61942 5.61133 5.46133 5.14648 6.50879C4.6816 7.55636 4.61828 8.73644 4.96875 9.82715C5.1687 10.4494 5.49557 11.0175 5.92285 11.5H2.17871C1.9943 11.4966 1.81923 11.4211 1.69238 11.291C1.56565 11.161 1.49713 10.9866 1.5 10.8076V4.7002H4.02637C4.47851 4.7002 4.91329 4.52227 5.23438 4.2041C5.55563 3.88563 5.7373 3.45228 5.7373 3V0.5H9.50488ZM9.47363 5.90039C10.145 5.90039 10.7883 6.16446 11.2617 6.63379C11.735 7.10297 12 7.73879 12 8.40039C11.9999 8.89373 11.8522 9.37621 11.5752 9.78711C11.2982 10.198 10.9043 10.5192 10.4424 10.709C9.98034 10.8987 9.47126 10.9483 8.98047 10.8516C8.48959 10.7548 8.03858 10.516 7.68555 10.166C7.3327 9.81614 7.09321 9.37072 6.99609 8.88672C6.89899 8.40267 6.94804 7.90057 7.13867 7.44434C7.32935 6.98809 7.65291 6.59746 8.06836 6.32227C8.4839 6.04702 8.97305 5.90041 9.47363 5.90039ZM9.47363 6.09961C9.18193 6.09963 8.90094 6.21512 8.69336 6.4209C8.48581 6.62682 8.36816 6.90719 8.36816 7.2002V7.2998H8.26367C7.97194 7.2998 7.691 7.41529 7.4834 7.62109C7.27573 7.82703 7.1582 8.1073 7.1582 8.40039C7.15831 8.6934 7.27574 8.97383 7.4834 9.17969C7.69098 9.38533 7.97206 9.5 8.26367 9.5H8.36816V9.59961C8.36816 9.89257 8.48587 10.173 8.69336 10.3789C8.90094 10.5847 9.18193 10.7002 9.47363 10.7002C9.76536 10.7002 10.0463 10.5847 10.2539 10.3789C10.4615 10.173 10.5791 9.89261 10.5791 9.59961V9.5H10.6846C10.976 9.49991 11.2564 9.3852 11.4639 9.17969C11.6715 8.97383 11.789 8.6934 11.7891 8.40039C11.7891 8.10726 11.6716 7.82704 11.4639 7.62109C11.2563 7.41537 10.9762 7.29989 10.6846 7.2998H10.5791V7.2002C10.5791 6.90715 10.4615 6.62683 10.2539 6.4209C10.0463 6.21509 9.76536 6.09961 9.47363 6.09961ZM3.52637 2.5H1.96387L3.52637 0.951172V2.5Z" fill="#1F2A37" stroke="#111928"/>
</g>
<defs>
<clipPath id="clip0_849_4414">
<rect width="12" height="12" fill="white" transform="translate(0.5)"/>
</clipPath>
</defs>
</svg>
