<svg width="13" height="13" viewBox="0 0 13 13" fill="none" xmlns="http://www.w3.org/2000/svg">
<g clip-path="url(#clip0_849_4745)">
<path d="M6.66577 1C8.12412 1.0016 9.52226 1.58208 10.5535 2.61328C11.5201 3.57996 12.091 4.86864 12.1599 6.22754L12.1667 6.50098C12.1666 7.58841 11.8441 8.65148 11.24 9.55566C10.6356 10.4601 9.77623 11.1648 8.77124 11.5811C7.76628 11.9973 6.66036 12.1067 5.59351 11.8945C4.52669 11.6823 3.54722 11.1578 2.77808 10.3887C2.00893 9.61953 1.48446 8.64006 1.27222 7.57324C1.06001 6.50639 1.16946 5.40047 1.58569 4.39551C2.00198 3.39051 2.70661 2.53111 3.61108 1.92676C4.51527 1.32261 5.57834 1.00019 6.66577 1ZM6.36694 2.40039C5.99573 2.40039 5.63924 2.54714 5.37671 2.80957C5.1142 3.07208 4.9666 3.42857 4.96655 3.7998C4.96655 4.0767 5.04905 4.3479 5.20288 4.57812C5.25777 4.66023 5.32123 4.73556 5.39136 4.80371C5.12728 4.82186 4.87761 4.93376 4.68921 5.12207C4.48292 5.32836 4.36694 5.60865 4.36694 5.90039C4.36705 6.19199 4.48301 6.47154 4.68921 6.67773C4.89544 6.88392 5.17493 6.99995 5.46655 7H5.56714V7.7998H5.46655C5.17498 7.79986 4.89543 7.91595 4.68921 8.12207C4.48292 8.32836 4.36694 8.60865 4.36694 8.90039C4.36705 9.19199 4.48301 9.47154 4.68921 9.67773C4.89544 9.88392 5.17493 9.99995 5.46655 10H7.86694C8.15857 9.99995 8.43805 9.88392 8.64429 9.67773C8.85048 9.47154 8.96645 9.19199 8.96655 8.90039C8.96655 8.60865 8.85058 8.32836 8.64429 8.12207C8.43806 7.91595 8.15852 7.79986 7.86694 7.7998H7.76636V5.90039C7.76636 5.60865 7.65038 5.32836 7.44409 5.12207C7.36778 5.04582 7.28153 4.98188 7.18823 4.93164C7.24749 4.88863 7.30496 4.84226 7.35718 4.79004C7.55285 4.59429 7.68598 4.34469 7.73999 4.07324C7.79399 3.80176 7.76579 3.5204 7.65991 3.26465C7.55395 3.00883 7.37452 2.78958 7.14429 2.63574C6.91417 2.48206 6.64366 2.40043 6.36694 2.40039Z" fill="#9CA3AF" stroke="#9CA3AF"/>
</g>
<defs>
<clipPath id="clip0_849_4745">
<rect width="12" height="12" fill="white" transform="translate(0.666748 0.5)"/>
</clipPath>
</defs>
</svg>
