<svg width="14" height="15" viewBox="0 0 14 15" fill="none" xmlns="http://www.w3.org/2000/svg">
<g clip-path="url(#clip0_849_16)">
<path d="M6.99998 0.5C5.75818 0.50949 4.56558 0.982912 3.65983 1.82593C2.75407 2.66894 2.20166 3.81965 2.11268 5.04875C2.02369 6.27785 2.40467 7.49509 3.17969 8.45792C3.95471 9.42075 5.06687 10.0585 6.29454 10.244V13.8C6.29454 13.9857 6.36887 14.1637 6.50116 14.295C6.63345 14.4263 6.81288 14.5 6.99998 14.5C7.18707 14.5 7.3665 14.4263 7.49879 14.295C7.63108 14.1637 7.70541 13.9857 7.70541 13.8V10.244C8.93308 10.0585 10.0452 9.42075 10.8203 8.45792C11.5953 7.49509 11.9763 6.27785 11.8873 5.04875C11.7983 3.81965 11.2459 2.66894 10.3401 1.82593C9.43437 0.982912 8.24177 0.50949 6.99998 0.5ZM6.99998 4.35C6.71934 4.35 6.45019 4.46062 6.25175 4.65754C6.05331 4.85445 5.94183 5.12152 5.94183 5.4C5.94183 5.58565 5.86751 5.7637 5.73521 5.89497C5.60292 6.02625 5.42349 6.1 5.2364 6.1C5.0493 6.1 4.86987 6.02625 4.73758 5.89497C4.60529 5.7637 4.53096 5.58565 4.53096 5.4C4.53096 4.75022 4.79109 4.12705 5.25412 3.66759C5.71715 3.20812 6.34515 2.95 6.99998 2.95C7.18707 2.95 7.3665 3.02375 7.49879 3.15503C7.63108 3.2863 7.70541 3.46435 7.70541 3.65C7.70541 3.83565 7.63108 4.0137 7.49879 4.14497C7.3665 4.27625 7.18707 4.35 6.99998 4.35Z" fill="#F05252"/>
</g>
<defs>
<clipPath id="clip0_849_16">
<rect width="14" height="14" fill="white" transform="translate(0 0.5)"/>
</clipPath>
</defs>
</svg>
