<svg width="16" height="16" viewBox="0 0 16 16" fill="none" xmlns="http://www.w3.org/2000/svg">
<path fill-rule="evenodd" clip-rule="evenodd" d="M9.6001 1.2688L6.4001 4.4688V14.7312L9.6001 11.5312V1.2688ZM2.9657 2.6344C2.85382 2.52255 2.71129 2.44639 2.55612 2.41553C2.40096 2.38468 2.24013 2.40052 2.09397 2.46106C1.94781 2.52159 1.82288 2.6241 1.73498 2.75563C1.64707 2.88716 1.60013 3.0418 1.6001 3.2V11.2C1.60014 11.4122 1.68446 11.6156 1.8345 11.7656L4.8001 14.7312V4.4688L2.9657 2.6344ZM14.1657 4.2344L11.2001 1.2688V11.5312L13.0345 13.3656C13.1464 13.4774 13.2889 13.5536 13.4441 13.5845C13.5992 13.6153 13.7601 13.5995 13.9062 13.5389C14.0524 13.4784 14.1773 13.3759 14.2652 13.2444C14.3531 13.1128 14.4001 12.9582 14.4001 12.8V4.8C14.4001 4.58784 14.3157 4.38439 14.1657 4.2344Z" fill="white"/>
</svg>
