<svg width="14" height="14" viewBox="0 0 14 14" fill="none" xmlns="http://www.w3.org/2000/svg">
<path d="M2.80029 2.6001H8.3999C8.6386 2.6001 8.86784 2.69499 9.03662 2.86377C9.20528 3.03253 9.30029 3.26189 9.30029 3.50049V10.5005C9.30036 10.8173 9.37946 11.1258 9.52686 11.3999H2.80029C2.5616 11.3999 2.33236 11.305 2.16357 11.1362C1.99494 10.9675 1.90001 10.739 1.8999 10.5005V3.50049C1.8999 3.26179 1.99479 3.03255 2.16357 2.86377C2.33236 2.69499 2.5616 2.6001 2.80029 2.6001ZM2.99951 10.3003H8.19971V7.8999H2.99951V10.3003ZM2.99951 7.50049H8.19971V3.69971H2.99951V7.50049Z" fill="white" stroke="white"/>
<path d="M10.5 4.8999H11.2C11.5713 4.8999 11.9274 5.0474 12.1899 5.30995C12.4525 5.5725 12.6 5.9286 12.6 6.2999V10.1499C12.6 10.4284 12.4894 10.6955 12.2925 10.8924C12.0955 11.0893 11.8285 11.1999 11.55 11.1999C11.2715 11.1999 11.0045 11.0893 10.8075 10.8924C10.6106 10.6955 10.5 10.4284 10.5 10.1499V4.8999Z" fill="white"/>
</svg>
