<svg width="16" height="17" viewBox="0 0 16 17" fill="none" xmlns="http://www.w3.org/2000/svg">
<g clip-path="url(#clip0_849_1924)">
<path d="M12.0078 12.21C12.0843 12.2094 12.1579 12.2381 12.2139 12.29L15.4121 15.4883C15.454 15.5302 15.4826 15.5835 15.4941 15.6416C15.5057 15.6996 15.5001 15.7598 15.4775 15.8145C15.4548 15.8693 15.4155 15.9163 15.3662 15.9492C15.317 15.9821 15.2594 16 15.2002 16L15.1416 15.9941C15.0839 15.9826 15.0305 15.9543 14.9883 15.9121L11.7939 12.7178C11.7395 12.6612 11.7093 12.5853 11.71 12.5068C11.7107 12.4283 11.7424 12.3534 11.7979 12.2979C11.8535 12.2422 11.9291 12.2106 12.0078 12.21ZM5.24902 1.11328C6.39352 0.885631 7.58011 1.00266 8.6582 1.44922C9.73615 1.89577 10.6574 2.65196 11.3057 3.62207C11.9135 4.5317 12.2555 5.59123 12.2959 6.68164L12.2998 6.90039C12.2978 8.46423 11.676 9.96341 10.5703 11.0693C9.46411 12.1755 7.96382 12.7971 6.39941 12.7988C5.23272 12.7987 4.09215 12.4538 3.12207 11.8057C2.15195 11.1574 1.39579 10.2361 0.949219 9.1582C0.502666 8.08014 0.385645 6.89349 0.613281 5.74902C0.840936 4.60454 1.40338 3.55364 2.22852 2.72852C3.05366 1.90339 4.10452 1.34093 5.24902 1.11328ZM6.40039 1.59961C5.35214 1.59961 4.32667 1.91079 3.45508 2.49316C2.58363 3.07552 1.90501 3.90373 1.50391 4.87207C1.10283 5.84039 0.997735 6.90562 1.20215 7.93359C1.40664 8.96164 1.91118 9.90626 2.65234 10.6475C3.39357 11.3887 4.3381 11.8941 5.36621 12.0986C6.39426 12.3031 7.46032 12.198 8.42871 11.7969C9.39697 11.3958 10.2243 10.7161 10.8066 9.84473C11.3889 8.97326 11.7001 7.9485 11.7002 6.90039V6.89941C11.6988 5.49436 11.14 4.14684 10.1465 3.15332C9.15294 2.15987 7.80541 1.60101 6.40039 1.59961Z" fill="#6B7280" stroke="#6B7280"/>
</g>
<defs>
<clipPath id="clip0_849_1924">
<rect width="16" height="16" fill="white" transform="translate(0 0.5)"/>
</clipPath>
</defs>
</svg>
