<svg width="15" height="15" viewBox="0 0 15 15" fill="none" xmlns="http://www.w3.org/2000/svg">
<path d="M5.2998 11.5C5.44558 11.5 5.58535 11.5581 5.68848 11.6611C5.79158 11.7642 5.84956 11.904 5.84961 12.0498C5.84961 12.1957 5.79162 12.3353 5.68848 12.4385C5.58533 12.5416 5.44567 12.5996 5.2998 12.5996C5.15401 12.5996 5.01423 12.5416 4.91113 12.4385C4.80811 12.3354 4.75 12.1956 4.75 12.0498C4.75005 11.904 4.80803 11.7642 4.91113 11.6611C5.01423 11.558 5.15401 11.5001 5.2998 11.5ZM10.2002 11.5C10.346 11.5001 10.4858 11.558 10.5889 11.6611C10.692 11.7642 10.7499 11.904 10.75 12.0498C10.75 12.1956 10.6919 12.3353 10.5889 12.4385C10.4858 12.5416 10.346 12.5996 10.2002 12.5996C10.0543 12.5996 9.91467 12.5416 9.81152 12.4385C9.70838 12.3353 9.65039 12.1957 9.65039 12.0498C9.65044 11.904 9.70842 11.7642 9.81152 11.6611C9.91465 11.5581 10.0544 11.5 10.2002 11.5Z" fill="white" stroke="white"/>
<path d="M2.8499 3.30005C2.66425 3.30005 2.4862 3.3738 2.35493 3.50507C2.22365 3.63635 2.1499 3.8144 2.1499 4.00005V11C2.1499 11.1857 2.22365 11.3637 2.35493 11.495C2.4862 11.6263 2.66425 11.7 2.8499 11.7H3.5849C3.66523 11.3044 3.87986 10.9488 4.19241 10.6933C4.50497 10.4379 4.89623 10.2983 5.2999 10.2983C5.70358 10.2983 6.09484 10.4379 6.40739 10.6933C6.71995 10.9488 6.93457 11.3044 7.0149 11.7H7.7499C7.93555 11.7 8.1136 11.6263 8.24488 11.495C8.37615 11.3637 8.4499 11.1857 8.4499 11V4.00005C8.4499 3.8144 8.37615 3.63635 8.24488 3.50507C8.1136 3.3738 7.93555 3.30005 7.7499 3.30005H2.8499ZM10.5499 5.40005C10.3643 5.40005 10.1862 5.4738 10.0549 5.60507C9.92365 5.73635 9.8499 5.9144 9.8499 6.10005V10.335C10.0751 10.289 10.3072 10.2879 10.5329 10.3316C10.7586 10.3753 10.9734 10.463 11.1652 10.5898C11.3569 10.7165 11.5219 10.8798 11.6505 11.0703C11.7791 11.2608 11.869 11.4748 11.9149 11.7H12.6499C12.8356 11.7 13.0136 11.6263 13.1449 11.495C13.2762 11.3637 13.3499 11.1857 13.3499 11V7.50005C13.3499 7.31441 13.2761 7.13639 13.1448 7.00515L11.7448 5.60515C11.6136 5.47386 11.4355 5.40009 11.2499 5.40005H10.5499Z" fill="white"/>
</svg>
