<svg width="21" height="20" viewBox="0 0 21 20" fill="none" xmlns="http://www.w3.org/2000/svg">
<g clip-path="url(#clip0_849_1053)">
<path d="M10.25 10.5263C11.9069 10.5263 13.25 9.11251 13.25 7.36846C13.25 5.62441 11.9069 4.21058 10.25 4.21058C8.59314 4.21058 7.25 5.62441 7.25 7.36846C7.25 9.11251 8.59314 10.5263 10.25 10.5263Z" fill="#9CA3AF"/>
<path d="M9.25 13.6842H11.25C12.3109 13.6842 13.3283 14.1278 14.0784 14.9175C14.8286 15.7071 15.25 16.778 15.25 17.8947V20H5.25V17.8947C5.25 16.778 5.67143 15.7071 6.42157 14.9175C7.17172 14.1278 8.18913 13.6842 9.25 13.6842Z" fill="#9CA3AF"/>
<path d="M13.25 7.36846C13.2493 6.62425 12.9983 5.90431 12.5417 5.33616C12.085 4.76801 11.4521 4.38829 10.755 4.26426" fill="#9CA3AF"/>
<path d="M14.75 6.46419e-05C14.0315 0.00237674 13.327 0.209012 12.7109 0.598123C12.0948 0.987233 11.59 1.54436 11.25 2.21058C12.3787 2.45471 13.3928 3.10106 14.1215 4.04065C14.8502 4.98023 15.2487 6.15557 15.25 7.36846C15.2483 7.70795 15.2148 8.04643 15.15 8.37899C16.1725 8.27657 17.118 7.76293 17.7898 6.94503C18.4615 6.12713 18.8076 5.068 18.7561 3.9882C18.7045 2.90839 18.2593 1.89113 17.513 1.14823C16.7668 0.405338 15.7771 -0.00593086 14.75 6.46419e-05Z" fill="#9CA3AF"/>
<path d="M7.616 11.8232C6.76249 11.2605 6.08802 10.4424 5.679 9.47372H5.25C3.9244 9.47539 2.65356 10.0304 1.71622 11.0171C0.778882 12.0038 0.251588 13.3415 0.25 14.7369V16.8421C0.25 17.1213 0.355357 17.389 0.542893 17.5864C0.730429 17.7838 0.984783 17.8947 1.25 17.8947H3.25C3.25228 16.5208 3.67963 15.1851 4.46738 14.0896C5.25513 12.9941 6.36042 12.1985 7.616 11.8232Z" fill="#9CA3AF"/>
<path d="M15.25 9.47372H14.821C14.412 10.4424 13.7375 11.2605 12.884 11.8232C14.1396 12.1985 15.2449 12.9941 16.0326 14.0896C16.8204 15.1851 17.2477 16.5208 17.25 17.8947H19.25C19.5152 17.8947 19.7696 17.7838 19.9571 17.5864C20.1446 17.389 20.25 17.1213 20.25 16.8421V14.7369C20.2484 13.3415 19.7211 12.0038 18.7838 11.0171C17.8464 10.0304 16.5756 9.47539 15.25 9.47372Z" fill="#9CA3AF"/>
<path d="M5.25 7.36847C5.25127 6.15557 5.64984 4.98024 6.37849 4.04065C7.10715 3.10107 8.12133 2.45472 9.25 2.21059C8.92352 1.57248 8.44564 1.03421 7.86289 0.648193C7.28015 0.262172 6.61238 0.0415439 5.92459 0.00778532C5.23681 -0.0259732 4.55243 0.128288 3.93809 0.455552C3.32374 0.782817 2.80036 1.27194 2.41888 1.8753C2.0374 2.47866 1.81083 3.17571 1.76121 3.8986C1.71159 4.62148 1.84062 5.34558 2.13574 6.0004C2.43086 6.65522 2.88201 7.21845 3.44528 7.63528C4.00855 8.05211 4.66475 8.30832 5.35 8.37899C5.28516 8.04643 5.25166 7.70795 5.25 7.36847Z" fill="#9CA3AF"/>
</g>
<defs>
<clipPath id="clip0_849_1053">
<rect width="20" height="20" fill="white" transform="translate(0.25)"/>
</clipPath>
</defs>
</svg>
