<svg width="13" height="12" viewBox="0 0 13 12" fill="none" xmlns="http://www.w3.org/2000/svg">
<path d="M5.46191 6.81543H7.53809C8.33727 6.81634 9.09499 7.10742 9.64746 7.61133C10.1295 8.05111 10.4197 8.61979 10.4854 9.2168L10.5 9.47461V11.3682C10.5 11.3875 10.4917 11.4163 10.46 11.4453C10.4267 11.4757 10.3727 11.5 10.3076 11.5H2.69238C2.62732 11.5 2.57333 11.4757 2.54004 11.4453C2.50829 11.4163 2.5 11.3875 2.5 11.3682V9.47461C2.50091 8.78534 2.80153 8.114 3.35254 7.61133C3.83609 7.17028 4.47678 6.89208 5.16504 6.8291L5.46191 6.81543ZM6.5 0.5C7.98851 0.5 9.11505 1.59063 9.11523 2.8418C9.11523 4.09309 7.98863 5.18457 6.5 5.18457C5.01137 5.18457 3.88477 4.09309 3.88477 2.8418C3.88495 1.59063 5.01149 0.5 6.5 0.5Z" fill="#9CA3AF" stroke="#9CA3AF"/>
</svg>
